PathFileType	4	(X/Y/Z)	Patient4_TMGait_0pt6_02_left_28.trc.trc
DataRate	CameraRate	NumFrames	NumMarkers	Units	OrigDataRate	OrigDataStartFrame	OrigNumFrames
81.395348837209	81.395348837209	4	33	mm	81.395348837209	89	       141
Frame#	Time	Sacral			L.Shoulder			Chest			R.Shoulder			Neck			R.ASIS			L.ASIS			R.Thigh.Superior			R.Thigh.Lateral			R.Thigh.Inferior			R.Patella			L.Thigh.Superior			L.Thigh.Lateral			L.Thigh.Inferior			L.Patella			L.Shank.Superior			L.Shank.Lateral			L.Shank.Inferior			R.Shank.Superior			R.Shank.Lateral			R.Shank.Inferior			R.Heel			R.Midfoot.Superior			R.Midfoot.Lateral			R.Toe			L.Heel			L.Midfoot.Lateral			L.Midfoot.Superior			L.Toe			L.Elbow			L.Wrist			R.Elbow			R.Wrist			
		X1	Y1	Z1	X2	Y2	Z2	X3	Y3	Z3	X4	Y4	Z4	X5	Y5	Z5	X6	Y6	Z6	X7	Y7	Z7	X8	Y8	Z8	X9	Y9	Z9	X10	Y10	Z10	X11	Y11	Z11	X12	Y12	Z12	X13	Y13	Z13	X14	Y14	Z14	X15	Y15	Z15	X16	Y16	Z16	X17	Y17	Z17	X18	Y18	Z18	X19	Y19	Z19	X20	Y20	Z20	X21	Y21	Z21	X22	Y22	Z22	X23	Y23	Z23	X24	Y24	Z24	X25	Y25	Z25	X26	Y26	Z26	X27	Y27	Z27	X28	Y28	Z28	X29	Y29	Z29	X30	Y30	Z30	X31	Y31	Z31	X32	Y32	Z32	X33	Y33	Z33	

89	35.301142857143	920.081453364915	1002.451572176312	495.279325739790	1118.605972573671	1422.861571180194	310.331108489482	1216.448569030702	1346.248516776187	471.177936704619	1136.919841002450	1429.402119114844	641.659859989526	1125.301563349522	1484.010738369720	459.652584337014	1148.461627195526	935.478581640813	612.231685446618	1133.065725113525	950.798870269395	337.521810316808	1210.873551630065	749.457325772763	579.947743967071	1146.782266981162	634.096356233909	645.053508905719	1228.397744108772	589.057715160508	563.535052721932	1242.019024137192	498.433245318252	572.911235777436	1155.659466074729	728.291379787587	361.863370685668	1055.508069214802	621.141242531058	300.725774585032	1134.521581898394	530.079846302000	357.701394600862	1121.066771638720	446.904459558975	357.244897130037	1053.430550066881	392.167261009235	353.531487561253	914.172599418535	344.541368872541	308.007156825157	903.358078401454	217.942116154444	367.708669767548	1214.308597571135	408.260028140407	583.738661744080	1147.498894635403	304.878529767458	651.286359005329	1189.601109168309	208.920595133911	589.675440055908	1059.294210824842	43.428519176932	568.467513272528	1230.591930267289	98.748247013328	599.338733756619	1144.417979628219	37.558792085412	640.991552727352	1352.164714298216	46.375317037206	623.379087311236	714.597012661613	139.843469741187	407.897061431901	776.663802578275	98.559910591508	329.946524062920	878.565506343127	117.844389190596	351.733967926949	967.316720721681	33.045837244275	329.248126998713	1115.333463407048	1072.881148576582	191.514425770032	1361.966291985903	1043.962030717469	244.305547947407	1037.533330749788	1099.577928286769	765.799596690494	1097.212183488145	843.976453769481	762.626056675562	
90	35.313428571429	919.434176843091	1003.485070219740	498.895060037579	1117.497975927009	1423.542834772531	312.231886666562	1216.608904004536	1346.601257856892	472.152396144303	1138.949887223817	1430.027070991816	643.296819789803	1125.831476584039	1484.594519361203	461.483449151974	1148.779505965233	936.432241189534	613.995254586853	1131.941241713049	952.036881329682	339.394182288912	1209.038908220023	748.539465749737	582.578935176259	1143.296162480232	634.090291849533	647.049181958611	1224.280720715612	588.314648283269	565.239226870804	1236.833526958588	497.766483589779	574.052618439076	1160.075385714419	731.096322288520	363.919260111218	1064.464887023298	621.044960209825	302.344296755825	1146.873946143142	531.930508691404	359.014891171263	1134.593641974432	447.344663981609	357.824094925582	1064.861725636071	392.914404449703	354.350628977665	923.660367152784	350.559166989883	309.233221710526	908.690631091486	224.082084548380	368.135730612675	1208.757688939132	407.851476989401	584.783268680309	1141.730426838932	304.594409999035	652.122035354824	1183.098451696949	208.652322059404	590.101617243318	1052.059477995112	43.444095460926	568.620780846746	1223.332571538311	98.765286105326	599.606384637818	1137.147716966143	37.526880083860	641.171297097522	1344.913121048531	46.182390017956	623.646475681775	717.388595764685	156.208101382864	408.628178371198	776.461338807562	110.912335033422	330.537266761633	879.503236716571	123.251681552831	352.105253723998	961.336652229245	31.799074991324	329.442815657413	1109.850234730205	1073.272758585631	193.984129665018	1356.671913860606	1041.913564176705	244.636998205061	1044.868654470379	1099.251579225435	769.869237393734	1114.830637510746	846.506988876473	765.428369516754	
91	35.325714285714	918.639696761196	1004.479946201180	502.394567979998	1116.171516641344	1424.060412331350	313.916885153073	1216.667706995210	1346.835209483434	472.862876395524	1140.964282221369	1430.507500142967	644.710526040893	1126.226244448949	1485.066233440544	463.094199561912	1148.888924272090	937.281062242450	615.661811627549	1130.627890226387	953.180343887483	341.187626122265	1206.942838755289	747.513819417711	585.307416098915	1139.524604663552	634.012527953176	649.054242827384	1219.894508362386	587.541426097202	566.969168641584	1231.366815786494	497.089556906970	575.226949306176	1164.424755704102	734.177722101424	366.079021768077	1073.601241963400	621.365484237119	303.867075238737	1159.194004534705	534.401697359168	360.499380907413	1148.262503256017	448.494850955706	358.716883665380	1076.712821469045	394.192057576223	355.319610997360	933.892312285628	356.833882837452	310.412268882424	914.903945312069	230.623095090971	368.668894861498	1202.976102813358	407.422443115599	585.837266040912	1135.750064371612	304.252356773661	652.931490517282	1176.469238256469	208.364661510023	590.521500117539	1044.743101347611	43.441141545397	568.745969617762	1216.025020997974	98.703474649709	599.817260156696	1129.796113200812	37.466156782644	641.322958458398	1337.599526587152	45.870611183566	623.874786096961	721.616886456528	172.820516762559	409.361683059371	777.627107651011	123.743713475563	331.161717478219	881.469104443603	129.227063838646	352.604460918013	956.264392312129	30.747575261033	329.719358921337	1104.016975988172	1073.530277757254	196.173917736850	1350.960503334982	1039.072692797117	244.740630465914	1052.247076488663	1099.016933893355	774.013716751874	1132.779205549832	849.680138660066	768.136248479586	
92	35.338000000000	917.722146311423	1005.424311804305	505.738582817213	1114.668767906104	1424.416696969031	315.380061679193	1216.623585307028	1346.945205523925	473.323129642777	1142.942081661330	1430.853084320547	645.900254752919	1126.494081983801	1485.434054348279	464.473736569265	1148.778082462048	938.019096557466	617.252187852473	1129.112953755569	954.223434036462	342.912613814690	1204.652008859316	746.465812378790	587.995635009745	1135.626362745412	633.905040557073	651.028492290529	1215.361349166182	586.773836683551	568.663766891480	1225.743450064296	496.424680395268	576.409671472306	1168.578272942192	737.539314795656	368.348197385023	1082.718627146180	622.174174834535	305.301098816860	1171.246532119544	537.528281476796	362.143165766364	1161.864987763504	450.397847929284	359.878451820993	1088.786369075362	396.032484893666	356.415756643798	944.668235285162	363.245761450177	311.539739604289	921.944820507237	237.389676753211	369.285907598533	1197.077258817343	406.987588486137	586.874968067776	1129.658333755297	303.889713369793	653.720947736046	1169.772195365484	208.072022045973	590.927819550782	1037.363946727661	43.435309838739	568.860911228595	1208.690850424775	98.585327423221	599.982238426267	1122.387036829576	37.394807493994	641.459733545375	1330.244679940816	45.474844013655	624.066221473247	727.215316704800	189.057764733806	410.058665362402	780.257852652556	136.549215858110	331.795310090858	884.573414890545	135.583751837644	353.197195354545	952.520996788884	30.073828543964	330.091093104303	1097.886479550005	1073.649553181690	198.126633031249	1344.847903486156	1035.340733084118	244.607249863101	1059.708485781697	1098.857536395893	778.181986901967	1150.985381945887	853.508622253935	770.659092864021	
